<svg xmlns="http://www.w3.org/2000/svg" viewBox="0 0 705.29 169.51"><defs><style>.cls-1,.cls-2{font-size:88.33px;font-family:BaronNeue, Baron Neue;}.cls-1{fill:#fff;}.cls-2{fill:#231f20;}.cls-3{fill:#ec2024;}.cls-4{fill:#04733b;}</style></defs><title>Al yasmeen 01</title><g id="Layer_2" data-name="Layer 2"><g id="Layer_1-2" data-name="Layer 1"><text class="cls-1" transform="translate(176.55 95.69)">Al Yasmeen</text><text class="cls-2" transform="translate(176.55 95.69)">Al Yasmeen</text><path class="cls-3" d="M93.76,54.78h-23q-4-6.47-8-12.89C61.86,40.52,61,39.15,59.56,37,51.34,50.1,43.46,62.71,35.09,76.11h23c-4.22,6.73-7.82,12.55-11.55,18.28A3.42,3.42,0,0,1,44,95.5c-14.35.07-28.7,0-44,0L59.58,0Z"/><path class="cls-4" d="M165.29,55.12c-3.34,4.8-6,8.7-8.74,12.58-9.29,13.26-18.66,26.47-27.78,39.85a13.76,13.76,0,0,0-2.25,7.24c-.19,16.54-.1,33.08-.1,49.62v4.81l-1.07.29c-5.75-9.25-11.56-18.45-17.21-27.77a10.13,10.13,0,0,1-1.17-4.67,62.1,62.1,0,0,1,0-10.91c1.4-10.82-2.51-19.37-8.67-28.25-5.92-8.53-11.53-17.27-17-26.09h23.11l12,19.27c6.35-9.09,12.75-17,17.77-25.8,4.69-8.16,10.53-11.9,19.93-10.26C157.43,55.61,160.92,55.12,165.29,55.12Z"/></g></g></svg>