<svg xmlns="http://www.w3.org/2000/svg" viewBox="0 0 858.5 197.55"><defs><style>.cls-1,.cls-2{font-size:119.23px;font-family:BaronNeue, Baron Neue;}.cls-1{fill:#fff;}.cls-2{fill:#231f20;}.cls-3{fill:#ec2024;}.cls-4{fill:#04733b;}</style></defs><title>Al yasmeen 02</title><g id="Layer_2" data-name="Layer 2"><g id="Layer_1-2" data-name="Layer 1"><text class="cls-1" transform="translate(185.9 112.11)">AlYasmeen</text><text class="cls-2" transform="translate(185.9 112.11)">AlYasmeen</text><path class="cls-3" d="M109.27,63.84H82.44q-4.64-7.53-9.33-15c-1-1.6-2-3.19-3.69-5.75L40.89,88.7H67.66c-4.93,7.84-9.12,14.63-13.47,21.3a4,4,0,0,1-3,1.3c-16.72.08-33.44.06-51.23.06L69.44,0Z"/><path class="cls-4" d="M192.63,64.24c-3.89,5.59-7,10.14-10.19,14.65-10.82,15.47-21.74,30.86-32.37,46.45a16.08,16.08,0,0,0-2.62,8.44c-.22,19.27-.12,38.56-.12,57.83v5.6l-1.24.34C139.38,186.78,132.61,176,126,165.19a12,12,0,0,1-1.36-5.45,73.89,73.89,0,0,1,0-12.71c1.64-12.6-2.92-22.57-10.1-32.92-6.89-9.94-13.43-20.13-19.85-30.4h26.93q7,11.17,14,22.46c7.4-10.6,14.87-19.88,20.72-30.08,5.47-9.51,12.27-13.87,23.23-12C183.47,64.81,187.54,64.24,192.63,64.24Z"/></g></g></svg>
