<svg xmlns="http://www.w3.org/2000/svg" viewBox="0 0 437.39 203.53"><defs><style>.cls-1,.cls-3{font-size:72px;font-family:BaronNeue, Baron Neue;}.cls-1{fill:#fff;}.cls-2{font-size:47.48px;}.cls-3{fill:#231f20;}.cls-4{fill:#ec2024;}.cls-5{fill:#04733b;}</style></defs><title>Al yasmeen 03</title><g id="Layer_2" data-name="Layer 2"><g id="Layer_1-2" data-name="Layer 1"><text class="cls-1" transform="translate(219.9 61.2)">Al<tspan class="cls-2"><tspan x="0" y="56.97">Yasmeen</tspan></tspan></text><text class="cls-3" transform="translate(219.9 61.2)">Al<tspan class="cls-2"><tspan x="0" y="56.97">Yasmeen</tspan></tspan></text><path class="cls-4" d="M109.27,69.82H82.44q-4.64-7.53-9.33-15c-1-1.6-2-3.19-3.69-5.75-9.58,15.32-18.77,30-28.53,45.63H67.66c-4.93,7.84-9.12,14.63-13.47,21.3a4,4,0,0,1-3,1.3c-16.72.08-33.44.06-51.23.06L69.44,6C82.79,27.38,96,48.54,109.27,69.82Z"/><path class="cls-5" d="M192.63,70.22c-3.89,5.59-7,10.13-10.19,14.65-10.82,15.46-21.74,30.86-32.37,46.45a16.07,16.07,0,0,0-2.62,8.43c-.22,19.28-.12,38.56-.12,57.84v5.6l-1.24.34C139.38,192.75,132.61,182,126,171.17a12,12,0,0,1-1.36-5.45,73.89,73.89,0,0,1,0-12.71c1.64-12.61-2.92-22.57-10.1-32.93-6.89-9.93-13.43-20.12-19.85-30.4h26.93l14,22.46c7.4-10.6,14.87-19.87,20.72-30.07,5.47-9.51,12.27-13.87,23.23-12C183.47,70.79,187.54,70.22,192.63,70.22Z"/></g></g></svg>