<svg width="40" height="40" viewBox="0 0 40 40" fill="none" xmlns="http://www.w3.org/2000/svg">
    <path d="M35.9 38.9H4.09998C2.39998 38.9 1.09998 37.6 1.09998 35.9V4.10001C1.09998 2.40001 2.39998 1.10001 4.09998 1.10001H35.9C37.6 1.10001 38.9 2.40001 38.9 4.10001V35.9C38.9 37.6 37.6 38.9 35.9 38.9Z" fill="white"/>
    <path d="M22.2 14H17.6C17.1 13.1 16.5 12.3 16 11.4C15.8 11.1 15.6 10.8 15.4 10.4C13.7 13 12.2 15.6 10.5 18.3H15.1C14.2 19.7 13.5 20.8 12.8 22C12.7 22.1 12.5 22.2 12.3 22.2C9.39996 22.2 6.49996 22.2 3.39996 22.2L15.4 3L22.2 14Z" fill="#EB2627"/>
    <path d="M36.6 14C35.9 15 35.4 15.8 34.8 16.5C32.9 19.2 31 21.8 29.2 24.5C29 25 28.8 25.5 28.8 26C28.8 29.3 28.8 32.7 28.8 36V37L28.6 37.1C27.4 35.2 26.3 33.4 25.1 31.5C24.9 31.2 24.9 30.9 24.9 30.6C24.8 29.9 24.8 29.1 24.9 28.4C25.2 26.2 24.4 24.5 23.2 22.7C22 21 20.9 19.2 19.8 17.4H24.5L26.9 21.3C28.2 19.5 29.5 17.9 30.5 16.1C31.4 14.5 32.6 13.7 34.5 14C35.1 14.1 35.8 14 36.6 14Z" fill="#0C743C"/>
    </svg>
