<?xml version="1.0" encoding="utf-8"?>
<!-- Generator: Adobe Illustrator 24.0.1, SVG Export Plug-In . SVG Version: 6.00 Build 0)  -->
<svg version="1.1" id="Layer_1" xmlns="http://www.w3.org/2000/svg" xmlns:xlink="http://www.w3.org/1999/xlink" height="90" width="90" x="0px" y="0px"
	 viewBox="0 0 60 60" style="enable-background:new 0 0 60 60;" xml:space="preserve">
<style type="text/css">
	.st0{fill:#1e5f9e;}
	.st1{fill:#1e5f9e;}
</style>
<g>
	<path class="st1" d="M8,40.9c0.2-0.3,0.4-0.5,0.7-0.8c1.8-1.9,3.6-3.7,5.4-5.6c0.6-0.6,1-0.6,1.6,0c0.3,0.3,0.6,0.7,1,1.1
		c0.2-0.3,0.3-0.4,0.4-0.5c1.6-2,3.5-3.5,6-4c1.5-0.3,3-0.2,4.4,0.2c1.4,0.4,2.8,0.5,4.2,0.5c2,0,4.1,0,6.1,0c1.3,0,2.4,0.4,3.1,1.6
		c0.1-0.1,0.2-0.2,0.3-0.3c1.5-1.5,3-3,4.5-4.5c1.5-1.5,4.1-1.4,5.5,0.3c1,1.2,1,2.7,0,4c-1.3,1.5-2.5,3-3.8,4.5
		c-1,1.2-2.1,2.4-3,3.6c-1.2,1.5-2.9,2.3-4.8,2.3c-2.1,0.1-4.3,0-6.4,0.1c-2,0-4.1,0-6.1,0.1c-0.7,0-1.3,0.1-2,0.2
		c0.1,0.2,0.2,0.3,0.3,0.4c0.6,0.6,0.6,1,0,1.6c-1.4,1.4-2.8,2.9-4.2,4.3c-0.5,0.5-1,1-1.5,1.5c-0.5,0.5-0.9,0.5-1.4,0
		c-3.3-3.1-6.6-6.3-9.9-9.5c-0.1-0.1-0.2-0.3-0.4-0.5C8,41.2,8,41.1,8,40.9z M18,36.7c0.1,0.1,0.1,0.1,0.1,0.1
		c1.7,1.7,3.4,3.3,5.1,5c0.1,0.1,0.4,0.2,0.6,0.1c2.5-0.4,5.1-0.4,7.6-0.4c2.6,0,5.2,0,7.8,0c1.6,0,3-0.6,4.1-1.9
		c1.5-1.9,3.1-3.7,4.6-5.5c0.7-0.8,1.4-1.6,2-2.4c0.6-0.8,0.5-1.6-0.4-2.1c-0.8-0.5-1.8-0.5-2.5,0.2c-1.8,1.8-3.6,3.6-5.4,5.4
		c-0.1,0.1-0.2,0.3-0.2,0.4c-0.3,2.1-1.5,3.1-3.6,3.1c-1.7,0-3.4,0-5.1,0c-0.2,0-0.4,0-0.6,0c-0.4,0-0.7-0.4-0.8-0.8
		c0-0.4,0.2-0.8,0.6-0.9c0.1,0,0.3,0,0.5,0c1.9,0,3.8,0,5.7,0c0.6,0,1.1-0.2,1.3-0.7c0.4-0.6,0.4-1.3,0-2c-0.3-0.6-0.9-0.7-1.5-0.7
		c-2.1,0-4.2,0-6.3,0c-1.5,0-3.1-0.2-4.5-0.6c-1.1-0.3-2.2-0.4-3.4-0.2C21.2,33.2,19.4,34.7,18,36.7z M14.9,36.2
		c-1.6,1.7-3.2,3.3-4.8,5c3,2.8,5.9,5.6,8.9,8.4c1.6-1.6,3.1-3.2,4.7-4.8C20.8,41.9,17.8,39.1,14.9,36.2z"/>
	<path class="st1" d="M14.2,16.5c-1.8-2.4-1.2-5.3,0.6-6.9c1.8-1.6,4.6-1.6,6.5,0c1.8,1.5,2.5,4.5,0.7,6.9c0.5,0.4,1,0.9,1.5,1.3
		c0.5-0.4,1-0.9,1.5-1.3c-1.9-2.6-1-5.5,0.7-7c1.8-1.5,4.6-1.5,6.4,0c1.7,1.4,2.7,4.3,0.7,7c0.5,0.4,1,0.9,1.5,1.3
		c0.5-0.4,1-0.9,1.5-1.3c-1-1.3-1.3-2.7-0.9-4.3C35.3,11,36,10,36.9,9.3c1.9-1.4,4.6-1.3,6.3,0.3c1.6,1.4,2.5,4.2,0.6,6.9
		c0.1,0.1,0.3,0.2,0.4,0.3c1.3,0.9,2,2.1,2,3.7c0,1.3,0,2.7,0,4c0,1.2-0.8,2-2,2.1c-1.1,0.1-2.2,0-3.3,0c-1.6,0-3.3,0-4.9,0
		c-0.5,0-1-0.2-1.5-0.3c-0.1,0-0.2,0-0.3,0c-0.4,0.1-0.9,0.3-1.3,0.3c-2.7,0-5.3,0-8,0c-0.4,0-0.9-0.2-1.3-0.3c-0.1,0-0.2,0-0.3,0
		c-0.4,0.1-0.9,0.3-1.3,0.3c-2.7,0-5.4,0-8,0c-1.5,0-2.3-0.9-2.3-2.3c0-1.2,0-2.3,0-3.5c0-1.9,0.7-3.3,2.3-4.2
		C14.1,16.5,14.2,16.5,14.2,16.5z M39.9,24.8c1.4,0,2.7,0,4.1,0c0.4,0,0.5-0.1,0.5-0.5c0-1.3,0-2.6,0-3.9c0-1.2-0.9-2.3-2-2.6
		c-0.2,0-0.4,0-0.5,0c-1.4,0.6-2.7,0.6-4,0c-0.2-0.1-0.4-0.1-0.5,0c-1.2,0.3-2,1.4-2,2.8c0,1.2,0,2.4,0,3.7c0,0.5,0.1,0.6,0.6,0.6
		C37.2,24.8,38.6,24.8,39.9,24.8z M18.1,24.8c1.3,0,2.7,0,4,0c0.3,0,0.5-0.1,0.5-0.5c0-1.3,0-2.7,0-4c0-1.2-0.9-2.2-2-2.5
		c-0.2,0-0.4,0-0.6,0c-1.3,0.6-2.7,0.6-4,0c-0.2-0.1-0.4-0.1-0.6,0c-1.2,0.3-2,1.4-2,2.6c0,1.3,0,2.5,0,3.8c0,0.6,0.1,0.6,0.6,0.6
		C15.5,24.8,16.8,24.8,18.1,24.8z M29,24.8c1.4,0,2.7,0,4.1,0c0.3,0,0.5-0.1,0.5-0.5c0-1.3,0-2.6,0-4c0-1.2-0.8-2.2-2-2.5
		c-0.2-0.1-0.4,0-0.6,0c-1.3,0.5-2.7,0.5-4,0c-0.2-0.1-0.4-0.1-0.6,0c-1.1,0.3-2,1.3-2,2.5c0,1.3,0,2.6,0,4c0,0.4,0.2,0.5,0.6,0.5
		C26.3,24.8,27.6,24.8,29,24.8z M29,16.6c1.8,0,3.3-1.5,3.3-3.3c0-1.8-1.5-3.3-3.3-3.3c-1.8,0-3.3,1.5-3.3,3.3
		C25.7,15.1,27.2,16.6,29,16.6z M21.4,13.3c0-1.8-1.4-3.3-3.2-3.3c-1.8,0-3.3,1.5-3.3,3.3c0,1.8,1.5,3.2,3.3,3.2
		C19.9,16.6,21.4,15.1,21.4,13.3z M39.9,16.6c1.8,0,3.3-1.5,3.3-3.3c0-1.8-1.5-3.3-3.3-3.3c-1.8,0-3.3,1.5-3.3,3.2
		C36.6,15.1,38.1,16.6,39.9,16.6z"/>
	<path class="st1" d="M28.6,38.7c-0.5,0-0.9-0.4-0.9-0.9c0-0.5,0.4-0.9,0.9-0.9c0.5,0,0.9,0.4,0.9,0.9
		C29.5,38.3,29.1,38.7,28.6,38.7z"/>
</g>
</svg>
