<?xml version="1.0" encoding="utf-8"?>
<!-- Generator: Adobe Illustrator 24.0.1, SVG Export Plug-In . SVG Version: 6.00 Build 0)  -->
<svg version="1.1" id="Layer_1" xmlns="http://www.w3.org/2000/svg" xmlns:xlink="http://www.w3.org/1999/xlink" height="90" width="90" x="0px" y="0px"
	 viewBox="0 0 60 60" style="enable-background:new 0 0 60 60;" xml:space="preserve">
<style type="text/css">
	.st0{fill:#020308;}
	.st1{fill:#B98E75;}
</style>
<g>
	<path class="st1" d="M37.9,45.6c-0.6,1.7-1.2,3.3-1.8,4.9c-0.2,0.4-0.3,0.8-0.5,1.3c-0.1,0.4-0.3,0.7-0.8,0.7
		c-0.4,0-0.6-0.4-0.7-0.7c-0.9-3.2-1.9-6.3-2.8-9.5c-0.4-1.3-0.8-2.5-1.1-3.8c0-0.1-0.1-0.2-0.2-0.5c-0.4,1.2-0.7,2.3-1,3.4
		c-1,3.4-2,6.9-3.1,10.3c-0.1,0.3-0.3,0.6-0.5,0.7c-0.4,0.2-0.8,0-1-0.6C23.7,49.9,23,48,22.3,46c0-0.1-0.1-0.3-0.2-0.4
		c-0.2,0.1-0.4,0.2-0.5,0.4c-1.6,1.2-3.2,2.4-4.7,3.5c-0.3,0.2-0.7,0.5-1.1,0.2c-0.4-0.3-0.3-0.7-0.2-1.1c1.4-4.8,2.9-9.7,4.3-14.6
		c-0.4-0.1-0.8-0.2-1.1-0.3c-1.8-0.5-2.5-1.4-2.4-3.3c0-0.7,0.1-1.4,0.1-2.1c0-0.6-0.2-1.2-0.6-1.7c-0.4-0.4-0.7-0.9-1.1-1.3
		c-1.4-1.7-1.4-3,0-4.6c0.2-0.3,0.5-0.6,0.7-0.8c0.8-0.8,1.1-1.8,0.9-2.9c-0.1-0.5-0.1-1-0.1-1.5c0-1.7,0.6-2.6,2.2-3.1
		c0.6-0.2,1.2-0.3,1.9-0.5c0.8-0.2,1.5-0.6,1.9-1.4c0.3-0.5,0.6-1.1,1-1.6c1-1.4,2.1-1.8,3.7-1.2c0.6,0.2,1.1,0.4,1.7,0.7
		c0.8,0.4,1.6,0.3,2.5,0c0.7-0.3,1.4-0.6,2.2-0.8c1.1-0.3,2.1,0,2.8,0.9c0.4,0.6,0.8,1.2,1.2,1.8c0.5,0.9,1.2,1.5,2.3,1.7
		c0.7,0.1,1.4,0.3,2,0.5c1.2,0.4,1.8,1.3,1.8,2.6c0,0.6,0,1.1-0.1,1.7c-0.2,1.2,0.1,2.2,0.9,3c0.4,0.4,0.7,0.8,1,1.2
		c1,1.3,1,2.5,0,3.8c-0.3,0.4-0.6,0.8-1,1.2c-0.8,0.8-1.1,1.8-0.9,2.9c0.1,0.6,0.1,1.2,0.1,1.8c0,1.3-0.6,2.1-1.8,2.6
		c-0.5,0.2-1.1,0.3-1.7,0.5c0.6,2,1.2,4.1,1.8,6.1c0.8,2.8,1.7,5.6,2.5,8.4c0.1,0.4,0.2,0.8-0.2,1.1c-0.4,0.3-0.8,0-1.1-0.2
		c-1.6-1.2-3.1-2.3-4.7-3.5C38.3,45.8,38.1,45.7,37.9,45.6z M42.2,15.9c0-1.6-0.2-1.9-1.6-2.3c-0.4-0.1-0.8-0.2-1.3-0.3
		c-1.3-0.3-2.3-1-3-2.2c-0.3-0.5-0.6-1.1-1-1.6c-0.5-0.7-0.9-0.8-1.7-0.6c-0.6,0.2-1.3,0.5-1.9,0.8c-1.1,0.5-2.2,0.5-3.3,0
		c-0.6-0.3-1.2-0.5-1.8-0.7c-1-0.3-1.4-0.2-2,0.6c-0.4,0.6-0.8,1.2-1.1,1.8c-0.6,0.9-1.4,1.5-2.4,1.7c-0.7,0.2-1.5,0.3-2.2,0.6
		c-0.8,0.2-1,0.6-1,1.4c0,0.5,0,1.1,0.1,1.6c0.2,1.5-0.1,2.8-1.2,3.9c-0.4,0.4-0.7,0.8-1.1,1.3c-0.5,0.7-0.6,1.3,0,2
		c0.4,0.6,0.9,1.1,1.4,1.7c0.6,0.7,0.9,1.6,0.9,2.6c0,0.8-0.1,1.6-0.1,2.4c0,0.9,0.3,1.2,1.1,1.5c0.6,0.2,1.1,0.3,1.7,0.4
		c1.4,0.3,2.4,1,3.1,2.2c0.3,0.6,0.7,1.1,1,1.6c0.5,0.6,0.9,0.8,1.6,0.5c0.8-0.3,1.5-0.6,2.2-0.9c0.9-0.4,1.9-0.4,2.8,0
		c0.7,0.3,1.4,0.6,2.2,0.9c0.9,0.3,1.3,0.2,1.8-0.6c0.4-0.6,0.8-1.2,1.2-1.8c0.6-1,1.4-1.5,2.5-1.8c0.7-0.2,1.4-0.3,2.1-0.5
		c0.8-0.3,1.1-0.6,1.1-1.5c0-0.5,0-1-0.1-1.5c-0.2-1.5,0.1-2.8,1.2-3.9c0.4-0.4,0.7-0.8,1.1-1.3c0.6-0.7,0.6-1.3,0-2
		c-0.4-0.6-0.9-1.1-1.4-1.7c-0.7-0.8-1-1.7-0.9-2.7C42.1,17,42.1,16.4,42.2,15.9z M21.3,34.3c-1.3,4.4-2.6,8.6-3.9,13
		c1.5-1.1,2.8-2.1,4.2-3.1c0.9-0.7,1.2-0.6,1.6,0.5c0.6,1.6,1.2,3.2,1.8,4.9c1.2-4,2.3-7.9,3.5-11.8c-0.5,0.2-0.9,0.4-1.3,0.5
		c-1.8,0.7-2.9,0.3-4-1.3c-0.4-0.6-0.7-1.2-1.1-1.7C22,34.9,21.7,34.7,21.3,34.3z M34.9,49.5c0.7-1.8,1.2-3.4,1.8-5
		c0.3-0.9,0.7-1,1.5-0.4c0.7,0.5,1.4,1,2.1,1.5c0.7,0.5,1.4,1,2.2,1.6c-1.3-4.4-2.6-8.6-3.9-13c-0.4,0.4-0.7,0.7-0.9,1
		c-0.4,0.6-0.7,1.2-1.1,1.7c-1,1.5-2.1,1.8-3.8,1.2c-0.4-0.2-0.9-0.4-1.4-0.6C32.6,41.7,33.7,45.5,34.9,49.5z"/>
	<path class="st1" d="M30,32.4c-5.2,0-9.4-4.2-9.3-9.4c0-5.2,4.2-9.4,9.4-9.3c5.2,0,9.3,4.2,9.3,9.4C39.3,28.2,35.1,32.4,30,32.4z
		 M30,15.1c-4.4,0-7.9,3.5-8,7.9c0,4.4,3.5,8,7.9,8c4.4,0,8-3.5,8-7.9C38,18.7,34.4,15.1,30,15.1z"/>
	<path class="st1" d="M33.7,27.3c0,0.7-0.5,1-1.1,0.7c-0.7-0.4-1.4-0.7-2-1.2c-0.5-0.3-0.8-0.3-1.3,0c-0.6,0.4-1.3,0.8-1.9,1.1
		c-0.2,0.1-0.7,0.2-0.8,0c-0.2-0.2-0.3-0.6-0.3-0.9c0.1-0.8,0.4-1.6,0.5-2.5c0-0.2-0.1-0.5-0.2-0.7c-0.6-0.6-1.3-1.1-1.8-1.7
		c-0.2-0.2-0.4-0.6-0.3-0.8c0.1-0.2,0.4-0.5,0.7-0.5c0.8-0.1,1.7-0.2,2.6-0.3c0.2,0,0.4-0.2,0.5-0.4c0.4-0.7,0.7-1.5,1-2.3
		c0.1-0.3,0.5-0.6,0.7-0.6c0.3,0,0.6,0.3,0.7,0.6c0.4,0.7,0.7,1.5,1,2.2c0.1,0.3,0.3,0.4,0.6,0.4c0.8,0,1.6,0.1,2.4,0.3
		c0.3,0.1,0.7,0.3,0.8,0.5c0.1,0.2-0.1,0.7-0.4,0.9c-0.5,0.5-1.1,1.1-1.7,1.5c-0.4,0.3-0.4,0.6-0.3,1C33.4,25.7,33.6,26.5,33.7,27.3
		z M28,26c0.6-0.3,1-0.6,1.5-0.8c0.4-0.3,0.8-0.2,1.1,0c0.4,0.3,0.9,0.5,1.4,0.8c-0.1-0.6-0.2-1.1-0.4-1.6c-0.1-0.5,0-0.8,0.4-1.1
		c0.4-0.3,0.7-0.7,1.2-1.1c-0.6-0.1-1-0.1-1.5-0.1c-0.6,0-0.9-0.3-1.1-0.8c-0.2-0.4-0.4-0.9-0.6-1.4c-0.3,0.6-0.5,1-0.6,1.5
		c-0.2,0.5-0.5,0.7-1,0.7c-0.5,0-1,0.1-1.6,0.2c0.5,0.4,0.8,0.8,1.2,1.1c0.4,0.3,0.5,0.6,0.4,1.1C28.2,24.9,28.1,25.4,28,26z"/>
	<path class="st1" d="M28,26c0.1-0.6,0.2-1.1,0.4-1.6c0.1-0.4,0-0.8-0.4-1.1c-0.4-0.3-0.8-0.7-1.2-1.1c0.6-0.1,1.1-0.1,1.6-0.2
		c0.5,0,0.8-0.2,1-0.7c0.2-0.5,0.4-0.9,0.6-1.5c0.2,0.5,0.5,0.9,0.6,1.4c0.2,0.6,0.6,0.8,1.1,0.8c0.5,0,0.9,0.1,1.5,0.1
		c-0.5,0.4-0.8,0.8-1.2,1.1c-0.4,0.3-0.5,0.7-0.4,1.1c0.1,0.5,0.2,1,0.4,1.6c-0.5-0.3-1-0.6-1.4-0.8c-0.4-0.2-0.7-0.3-1.1,0
		C29,25.4,28.5,25.7,28,26z"/>
</g>
</svg>
