<?xml version="1.0" encoding="utf-8"?>
<!-- Generator: Adobe Illustrator 24.0.1, SVG Export Plug-In . SVG Version: 6.00 Build 0)  -->
<svg version="1.1" id="Layer_1" xmlns="http://www.w3.org/2000/svg" xmlns:xlink="http://www.w3.org/1999/xlink" height="90" width="90" x="0px" y="0px"
	 viewBox="0 0 60 60" style="enable-background:new 0 0 60 60;" xml:space="preserve">
<style type="text/css">
	.st0{fill:#1e5f9e;}
	.st1{fill:#1e5f9e;}
</style>
<g>
	<path class="st1" d="M53.3,20.1C53.2,21.1,53,22,52.9,23c-0.1,0.4-0.1,0.9-0.2,1.3c-0.1,0.6-0.4,0.8-1,0.7
		c-0.9-0.1-1.8-0.3-2.7-0.4c-0.4-0.1-0.7,0-0.9,0.3c-0.2,0.4-0.1,0.7,0.1,1c0.5,0.7,1.1,1.4,1.6,2.1c0.4,0.6,0.4,1-0.2,1.4
		c-1.1,0.8-2.2,1.6-3.3,2.5c-0.6,0.4-1,0.4-1.4-0.2c-0.5-0.7-1-1.4-1.5-2.1c-0.2-0.3-0.5-0.5-0.9-0.4c-0.4,0.1-0.6,0.4-0.6,0.8
		c-0.1,0.9-0.2,1.7-0.4,2.6c-0.1,0.6-0.4,0.9-1,0.8c-1.4-0.2-2.9-0.4-4.3-0.6c-0.6-0.1-0.9-0.4-0.8-1c0.1-0.8,0.2-1.6,0.3-2.4
		c0-0.1,0.1-0.3,0-0.4c-0.1-0.3-0.2-0.6-0.4-0.8c-0.3-0.2-0.6-0.1-0.9,0.1c-0.7,0.5-1.4,1-2.1,1.5c-0.7,0.6-1.1,0.5-1.6-0.2
		c-0.8-1.1-1.6-2.1-2.4-3.2c-0.5-0.6-0.4-1,0.2-1.4c0.7-0.5,1.4-1,2.1-1.5c0.3-0.2,0.5-0.5,0.4-0.9c-0.1-0.4-0.4-0.5-0.8-0.6
		c-0.9-0.1-1.7-0.2-2.6-0.4c-0.8-0.1-1-0.4-0.9-1.2c0.2-1.4,0.4-2.8,0.6-4.2c0.1-0.7,0.4-0.9,1.1-0.8c0.9,0.1,1.8,0.2,2.6,0.4
		c0.4,0.1,0.7,0,0.9-0.3c0.2-0.4,0.1-0.7-0.1-1c-0.5-0.7-1-1.4-1.5-2.1c-0.2-0.2-0.3-0.5-0.4-0.8c0-0.1,0-0.1,0-0.2
		c-1,0.1-2,0.2-2.9,0.4c-5.2,1.2-9.2,5.5-9.9,10.8c-0.7,5.2,1.2,9.4,5.4,12.6c0.6,0.4,1.2,0.9,1.7,1.4c0.8,0.9,1.2,1.9,1.2,3.1
		c0,1,0,2.1,0,3.1c0,1,0.6,1.7,1.7,1.7c2,0,4,0,5.9,0c1.1,0,1.6-0.6,1.6-1.7c0-0.9,0-1.8,0-2.8c0-1.9,0.8-3.3,2.3-4.4
		c0.6-0.4,1.2-0.9,1.8-1.3c0.3,0.4,0.6,0.7,1,1.1c-0.6,0.4-1.1,0.9-1.7,1.3c-1.3,0.9-2,2.1-1.9,3.7c0,0.8,0,1.7,0,2.5
		c0,1.1-0.4,1.9-1.3,2.5c-0.1,0.1-0.3,0.4-0.3,0.5c0,1.2,0,2.5,0,3.7c0,1.9-1.3,3.2-3.2,3.3c-0.9,0-1.8,0-2.8,0
		c-1.9,0-3.2-1.3-3.2-3.3c0-1.3,0-2.5,0-3.8c0-0.2-0.1-0.4-0.3-0.5c-0.8-0.7-1.2-1.5-1.3-2.5c0-0.7,0-1.3,0-2.1
		c-0.4,0.4-0.7,0.7-1,1c-0.6,0.6-0.8,0.6-1.5,0.1c-0.6-0.4-1.2-0.8-1.9-1.3c-0.2,0.8-0.3,1.6-0.5,2.4c-0.1,0.6-0.4,0.8-1,0.8
		c-0.9,0-1.8,0-2.7,0c-0.6,0-0.8-0.2-0.9-0.8c-0.2-0.7-0.3-1.5-0.5-2.3c0,0,0,0-0.1-0.1c-0.6,0.4-1.1,0.8-1.7,1.2
		c-0.8,0.6-1,0.6-1.7-0.2c-0.6-0.6-1.2-1.2-1.8-1.8c-0.5-0.6-0.6-0.8-0.1-1.5c0.4-0.6,0.8-1.2,1.3-1.9c-0.7-0.2-1.3-0.3-2-0.4
		c-0.1,0-0.3-0.1-0.4-0.1c-0.5-0.1-0.7-0.4-0.7-0.9c0-1,0-1.9,0-2.9c0-0.5,0.2-0.8,0.7-0.9c0.8-0.2,1.6-0.3,2.4-0.5
		c-0.5-0.7-0.9-1.3-1.3-1.9c-0.4-0.6-0.4-0.9,0.1-1.5c0.7-0.7,1.3-1.3,2-2c0.5-0.4,0.7-0.5,1.3-0.1c0.6,0.4,1.3,0.9,2,1.3
		c0.2-0.7,0.3-1.4,0.4-2.1c0.1-0.6,0.3-1.1,1.1-1c0.1-1.8,0.5-3.6,1.3-5.2c1.7-3.7,4.5-6.3,8.3-7.8c1.9-0.7,3.8-1,5.9-0.8
		c0.5,0,0.8-0.1,1.2-0.4c0.5-0.4,1-0.8,1.6-1.2c0.6-0.5,1-0.4,1.4,0.2c0.5,0.7,1,1.4,1.5,2.1c0.2,0.3,0.5,0.5,0.9,0.4
		c0.4-0.1,0.6-0.4,0.6-0.8c0.1-0.9,0.3-1.8,0.4-2.7C38.8,7.2,39.1,7,39.8,7c1.4,0.2,2.7,0.4,4.1,0.6c0.7,0.1,1,0.4,0.9,1.2
		c-0.1,0.9-0.2,1.7-0.4,2.6c-0.1,0.4,0,0.7,0.4,0.9c0.4,0.2,0.7,0.1,1-0.2c0.7-0.5,1.4-1.1,2.1-1.6c0.5-0.4,0.9-0.3,1.4,0.2
		c0.8,1.1,1.7,2.2,2.5,3.4c0.4,0.6,0.4,0.9-0.2,1.4c-0.7,0.5-1.4,1-2.1,1.5c-0.3,0.2-0.5,0.5-0.4,1c0.1,0.4,0.4,0.5,0.8,0.6
		c0.9,0.1,1.7,0.3,2.6,0.4c0.4,0,0.7,0.2,0.9,0.5C53.3,19.7,53.3,19.9,53.3,20.1z M51.2,23.4c0.1-1,0.3-2,0.4-3
		c-0.3,0-0.5-0.1-0.7-0.1c-0.6-0.1-1.1-0.2-1.7-0.3c-0.9-0.2-1.5-0.8-1.7-1.6c-0.2-0.9,0-1.7,0.7-2.3c0.6-0.5,1.3-1,1.9-1.5
		c-0.6-0.8-1.2-1.6-1.8-2.4c-0.7,0.5-1.3,1-2,1.5c-1.1,0.7-2.4,0.3-3.1-0.7c-0.4-0.6-0.4-1.3-0.3-2.1c0.1-0.6,0.2-1.2,0.3-1.8
		c-0.5-0.1-1-0.1-1.5-0.2c-0.5-0.1-1-0.1-1.5-0.2c-0.1,0.8-0.2,1.5-0.3,2.2c-0.1,0.5-0.3,1-0.7,1.3c-1,1.1-2.6,0.9-3.5-0.3
		c-0.4-0.6-0.9-1.1-1.3-1.7c-0.8,0.6-1.6,1.2-2.5,1.8c0.5,0.6,0.9,1.2,1.3,1.8c0.6,0.8,0.6,1.7,0.1,2.6c-0.5,0.9-1.4,1.2-2.4,1.1
		c-0.7-0.1-1.4-0.2-2.1-0.3c-0.1,1-0.3,2-0.4,3c0.7,0.1,1.4,0.2,2.1,0.3c0.6,0.1,1,0.3,1.4,0.7c0.9,0.9,0.9,2.5-0.1,3.3
		c-0.6,0.5-1.3,1-1.9,1.5c0.6,0.8,1.2,1.6,1.8,2.4c0.6-0.4,1.1-0.9,1.7-1.3c0.6-0.4,1.2-0.6,1.9-0.5c1.3,0.3,2,1.4,1.8,2.8
		c-0.1,0.7-0.2,1.3-0.3,2c1,0.1,2,0.3,3,0.4c0.1-0.7,0.2-1.3,0.3-1.9c0.1-1.2,0.7-1.9,1.7-2.2c1-0.3,1.9,0.1,2.6,1
		c0.4,0.5,0.8,1.1,1.2,1.6c0.8-0.6,1.6-1.2,2.5-1.8c-0.4-0.6-0.9-1.2-1.3-1.7c-0.6-0.9-0.7-1.9-0.2-2.7c0.5-0.8,1.4-1.2,2.5-1.1
		C49.9,23.3,50.5,23.3,51.2,23.4z M15.8,26.9c0,0.1-0.1,0.1-0.1,0.2c-0.4,1.5-1.4,1.9-2.7,1c-0.4-0.3-0.9-0.6-1.2-0.8
		c-0.5,0.5-1,0.9-1.4,1.4c0.3,0.5,0.7,1,1,1.5c0.7,1.1,0.2,2.2-1,2.5c-0.6,0.1-1.2,0.3-1.8,0.4c0,0.6,0,1.2,0,1.8
		c0.5,0.1,1.1,0.2,1.6,0.3c1.5,0.3,2,1.4,1.1,2.7c-0.3,0.4-0.6,0.9-0.9,1.3c0.5,0.5,0.9,1,1.4,1.4c0.5-0.3,1-0.7,1.5-1
		c1-0.7,2.2-0.2,2.5,1c0.1,0.6,0.3,1.2,0.4,1.8c0.6,0,1.2,0,1.8,0c0.1-0.6,0.2-1.1,0.4-1.7c0.3-1.4,1.4-1.8,2.6-1
		c0.5,0.3,0.9,0.6,1.4,1c0.5-0.5,0.9-0.9,1.3-1.4c0.3-0.2,0.3-0.4,0.1-0.7c-0.6-1.2-1.7-1.7-2.7-2.5c-1.4,2.3-3.6,2.8-5.3,2.3
		c-1.9-0.5-3.4-2.1-3.4-4.1c-0.1-2.8,1.4-4.3,4-5C16.1,28.5,16,27.7,15.8,26.9z M17.2,37c1,0,1.9-0.6,2.5-1.7
		c0.1-0.3,0.1-0.4-0.1-0.6c-0.9-1-1.7-2.1-2.3-3.3c-0.3-0.6-0.3-0.6-1-0.4c-1.5,0.4-2.5,1.7-2.4,3.3C14.1,35.8,15.3,36.9,17.2,37z
		 M27.2,49.4c0,0.2,0,0.4,0,0.5c0,1.1,0.6,1.8,1.8,1.8c0.6,0,1.2,0,1.8,0c0.4,0,0.8,0,1.2,0c1.1-0.1,1.6-1,1.4-2.3
		C31.2,49.4,29.2,49.4,27.2,49.4z M33.3,46.3c-2.1,0-4.1,0-6.1,0c0,0.5,0,1,0,1.5c2.1,0,4.1,0,6.1,0C33.3,47.2,33.3,46.8,33.3,46.3z
		"/>
	<path class="st1" d="M17.1,6.8c0.5,2,1,4.1,1.6,6.2c-0.5,0.1-1,0.3-1.5,0.4c-0.5-2-1-4.1-1.6-6.1c0.5-0.1,0.9-0.3,1.3-0.4
		C17,6.8,17,6.8,17.1,6.8z"/>
	<path class="st1" d="M31,39.3c-0.5,0-1,0-1.5,0c0-0.3-0.1-0.6-0.1-0.9c-0.4-1.7-1.3-2.9-3-3.6c-1.6-0.7-3-1.6-4.1-2.8
		c-4-4.3-3.6-11.5,0.8-15.3c0.4-0.4,0.9-0.7,1.4-1.1c0.3,0.5,0.5,0.9,0.8,1.3c-0.3,0.2-0.6,0.4-0.9,0.7c-5.3,4.3-4.2,12.8,2,15.6
		c1.3,0.6,2.5,1.2,3.3,2.4C30.6,36.7,31,37.9,31,39.3z"/>
	<path class="st1" d="M9,12.3c0.3-0.4,0.6-0.8,0.9-1.2c1.8,1.3,3.6,2.6,5.4,3.8c-0.3,0.4-0.6,0.8-0.9,1.3
		C12.6,14.8,10.8,13.5,9,12.3z"/>
	<path class="st1" d="M7.7,20.1c2.1-0.5,4.1-1,6.2-1.5c0.1,0.5,0.2,1,0.4,1.5c-2.1,0.5-4.1,1-6.1,1.5C8,21.1,7.9,20.6,7.7,20.1z"/>
	<path class="st1" d="M48.2,44.5c-1.6-1.3-3.1-2.6-4.6-3.8c0.3-0.4,0.7-0.8,1-1.2c1.5,1.3,3.1,2.5,4.6,3.8
		C48.9,43.7,48.6,44.1,48.2,44.5z"/>
	<path class="st1" d="M41.7,47c-0.5,0-1,0-1.5,0c0-1.8,0-3.6,0-5.3c0.5,0,1,0,1.5,0C41.7,43.4,41.7,45.2,41.7,47z"/>
	<path class="st1" d="M44.9,37c0-0.5,0-1,0-1.5c1.8,0,3.5,0,5.3,0c0,0.5,0,1,0,1.5C48.5,37,46.7,37,44.9,37z"/>
	<path class="st1" d="M29.5,40.9c0.5,0,1,0,1.5,0c0,0.8,0,1.5,0,2.3c-0.5,0-1,0-1.5,0C29.5,42.4,29.5,41.7,29.5,40.9z"/>
	<path class="st1" d="M33.9,20.3c0-3.4,2.8-6.2,6.2-6.2c3.4,0,6.1,2.8,6.1,6.2c0,3.4-2.8,6.1-6.1,6.1C36.7,26.5,33.9,23.7,33.9,20.3
		z M44.6,20.3c0-2.5-2.1-4.6-4.6-4.6c-2.5,0-4.7,2.1-4.6,4.6c0,2.5,2.1,4.6,4.6,4.6C42.5,24.9,44.6,22.8,44.6,20.3z"/>
</g>
</svg>
