<?xml version="1.0" encoding="utf-8"?>
<!-- Generator: Adobe Illustrator 24.0.1, SVG Export Plug-In . SVG Version: 6.00 Build 0)  -->
<svg version="1.1" id="Layer_1" xmlns="http://www.w3.org/2000/svg" xmlns:xlink="http://www.w3.org/1999/xlink" height="90" width="90" x="0px" y="0px"
	 viewBox="0 0 60 60" style="enable-background:new 0 0 60 60;" xml:space="preserve">
<style type="text/css">
	.st0{fill:#1e5f9e;}
	.st1{fill:#1e5f9e;}
</style>
<g>
	<path class="st1" d="M19.2,25.7c0.7-0.1,1.5-0.2,2.2-0.3c0.7-0.1,1.4-0.1,2.1-0.2c0-0.1-0.1-0.2-0.1-0.3c-1-1.9-1.5-3.8-1.5-6
		c0-1.5,0-3,0-4.6c0-0.4,0.2-0.7,0.6-0.9c2.4-0.9,4.8-1.9,7.2-2.8c0.3-0.1,0.6-0.1,0.9,0c2.4,0.9,4.8,1.9,7.2,2.8
		c0.4,0.2,0.6,0.4,0.6,0.9c0,1.2,0,2.3,0,3.5c0.1,2.9-0.5,5.5-2.1,7.9c0.6,0.4,1.2,0.7,1.8,1.1c0.1,0,0.2,0,0.3-0.1
		c0.8-0.3,1.6-0.7,2.4-1c0.2-0.1,0.3-0.2,0.3-0.4c0-0.8,0.4-1.4,1.2-1.6c1.7-0.5,3.3-0.9,5-1.4c1-0.3,1.8,0.2,2.1,1.2
		c1.3,4.4,2.6,8.8,3.8,13.3c0.3,1-0.2,1.9-1.2,2.2c-1.6,0.5-3.2,0.9-4.8,1.3c-1,0.3-1.6,0-2.2-1.1c-1.2,0.7-2.5,1-3.9,1.2
		c-0.1,0-0.2,0.1-0.3,0.2c-0.4,1-1.2,1.5-2.3,1.7c0.8,2.2-1.2,4.5-3.7,3.5c-1,2.7-2.7,3.1-5.1,1.2c-0.3,1.2-1,2-2.2,2.2
		c-1.2,0.3-2.1-0.4-2.9-1.2c-1.6,0.5-2.3,0.3-3-1c-0.8,0.3-1.5,0.3-2.2-0.3c-0.7-0.6-0.8-1.3-0.6-2c-0.4-0.4-0.9-0.7-1.1-1.2
		c-0.2-0.4-0.2-1-0.3-1.6c-0.9-0.4-1.4-1.1-1.3-2.3c0-0.2-0.3-0.5-0.5-0.9c-0.1,0.3-0.2,0.5-0.2,0.6c-0.3,0.8-1.1,1.2-1.9,1
		c-1.7-0.5-3.4-0.9-5.1-1.4c-0.9-0.3-1.3-1.1-1.1-2.1c1.2-4.1,2.4-8.3,3.6-12.4c0.1-0.3,0.2-0.7,0.3-1c0.3-0.9,1.1-1.3,2-1.1
		c1.7,0.4,3.4,0.9,5.1,1.4C18.9,24,19.2,24.6,19.2,25.7z M25.3,47.3c0.2,0.2,0.4,0.3,0.6,0.5c0.7,0.6,1.6,0.7,2.3,0.1
		c0.7-0.6,0.7-1.5,0.2-2.2c-0.2-0.3-0.4-0.6,0-0.9c0.3-0.3,0.6-0.1,0.8,0.2c0.6,0.6,1.2,1.2,1.8,1.8c0.7,0.7,1.7,0.7,2.3,0
		c0.6-0.6,0.6-1.6,0-2.3c-1.2-1.3-2.5-2.5-3.8-3.8c-0.1-0.1-0.3-0.2-0.3-0.3c0-0.2,0-0.5,0.1-0.6c0.1-0.1,0.4-0.1,0.6,0
		c0.1,0,0.2,0.2,0.3,0.3c1.5,1.5,3,3,4.5,4.5c0.7,0.7,1.7,0.8,2.4,0.1c0.7-0.7,0.6-1.7-0.1-2.4c-0.6-0.6-1.1-1.1-1.7-1.7
		c-1-1-2-2-2.9-2.9c-0.3-0.3-0.4-0.5-0.1-0.9c0.2-0.3,0.6-0.2,0.9,0.1c0.3,0.3,0.6,0.6,0.9,0.9c1,1,2.1,2.1,3.1,3.1
		c0.8,0.8,2.2,0.4,2.5-0.6c0.3-0.7,0.1-1.4-0.5-1.9c-2.5-2.5-5-5-7.5-7.5c-1.1-1.1-2.4-1-3.5,0.1c-0.8,0.8-1.5,1.6-2.3,2.4
		c-1,1.1-2.6,1.2-3.8,0.4c-1.2-0.9-1.6-2.4-0.9-3.7c0.6-1.2,1.5-2.4,2.4-3.4c0.1-0.1,0.2-0.2,0.3-0.3c0-0.1,0-0.1,0-0.2
		c-1.6,0.2-3.3,0.4-4.9,0.6c-0.1,0-0.3,0.2-0.3,0.3c-1,3.4-2,6.9-3,10.3c0,0.1,0,0.3,0,0.3c0.2,0.3,0.5,0.6,0.8,0.9
		c0.6-0.6,1.1-1.1,1.6-1.6c1.1-1,2.8-0.5,3.2,0.9c0,0.2,0.1,0.3,0.1,0.5c1.2,0.1,1.9,0.8,2,2c1.3,0.3,1.7,0.7,2,2c0,0,0.1,0,0.1,0
		c0.9,0.1,1.5,0.5,1.8,1.3c0.3,0.9,0,1.6-0.7,2.2C26.2,46.3,25.8,46.8,25.3,47.3z M40.9,39.4c1.2-0.2,2.3-0.5,3.3-1
		c0.3-0.2,0.4-0.3,0.3-0.7c-0.9-3.2-1.8-6.3-2.7-9.5c-0.1-0.5-0.3-0.9-0.4-1.4c-0.2,0.1-0.4,0.1-0.5,0.2c-0.8,0.3-1.6,0.7-2.4,1
		c-0.2,0.1-0.6,0.1-0.8-0.1c-2-1.3-4.1-2-6.4-2.6c-2.7-0.6-5,0.1-6.8,2.1c-0.8,0.9-1.4,1.9-2.1,2.9c-0.6,0.9-0.3,2,0.5,2.5
		c0.8,0.6,1.8,0.4,2.5-0.3c0.7-0.8,1.4-1.5,2.1-2.3c1.5-1.6,3.5-1.7,5.1-0.1c2.4,2.4,4.7,4.7,7.1,7.1C40.3,37.9,40.8,38.5,40.9,39.4
		z M12.7,23.4c-0.5,0-0.6,0.3-0.7,0.6c-1.2,4.3-2.5,8.7-3.8,13c-0.2,0.6-0.1,0.8,0.6,1c1.5,0.4,3,0.8,4.5,1.3
		c0.7,0.2,0.9,0.1,1.1-0.6c1.2-4.3,2.5-8.7,3.7-13c0.2-0.6,0.1-0.8-0.6-1c-1.2-0.3-2.5-0.7-3.7-1C13.4,23.6,13,23.5,12.7,23.4z
		 M52.2,37.5c-0.1-0.2-0.1-0.3-0.1-0.4c-1.3-4.4-2.5-8.8-3.8-13.2c-0.1-0.5-0.4-0.6-0.9-0.5c-1.6,0.4-3.2,0.9-4.7,1.3
		c-0.5,0.1-0.6,0.4-0.5,0.9c0.5,1.8,1,3.5,1.5,5.3c0.7,2.6,1.5,5.2,2.2,7.7c0.2,0.6,0.4,0.8,0.8,0.7c1.7-0.4,3.3-0.9,5-1.4
		C51.9,37.9,52.1,37.6,52.2,37.5z M25.6,16.3c0,1.1,0,2.1,0,3.2c0.1,1.7,0.7,3.2,1.7,4.6c0.1,0.1,0.3,0.3,0.4,0.2
		c1.6-0.4,3.1-0.2,4.6,0.2c0.3,0.1,0.4,0,0.5-0.2c0.7-0.9,1.2-2,1.6-3.1c0.4-1.6,0.3-3.1,0.3-4.7c0-0.1-0.2-0.3-0.3-0.3
		c-1.3-0.5-2.6-1-3.9-1.5c-0.1-0.1-0.3-0.1-0.4,0C28.5,15.2,27.1,15.8,25.6,16.3z M26.4,24.7c-0.8-1.1-1.3-2.2-1.6-3.5
		c-0.4-1.8-0.2-3.5-0.2-5.3c0-0.2,0.3-0.4,0.4-0.5c1.6-0.6,3.2-1.3,4.8-1.9c0.2-0.1,0.5-0.1,0.7,0c1.6,0.6,3.2,1.2,4.8,1.8
		c0.3,0.1,0.5,0.3,0.5,0.7c0,1.1,0,2.1,0,3.2c0,1.9-0.6,3.7-1.7,5.3c-0.1,0.1-0.2,0.2-0.2,0.4c0.5,0.2,0.9,0.3,1.3,0.5
		c0.2,0.1,0.4,0,0.5-0.2c1-1.5,1.6-3.1,1.8-4.9c0.1-1.9,0.1-3.7,0.1-5.6c0-0.1-0.2-0.3-0.3-0.4c-1.5-0.6-2.9-1.2-4.4-1.7
		c-0.8-0.3-1.6-0.9-2.4-0.9c-0.8,0-1.6,0.5-2.5,0.9c-1.6,0.6-3.2,1.2-4.8,1.9c0,1.6,0,3.1,0,4.6c0,2,0.5,3.9,1.6,5.6
		c0.3,0.5,0.7,0.6,1.2,0.4C26,25,26.2,24.9,26.4,24.7z M24.5,42.3c-0.2-0.2-0.4-0.5-0.6-0.7c-0.3-0.2-0.7-0.1-1,0.2
		c-1,1-1.9,1.9-2.9,2.9c-0.3,0.3-0.3,0.9,0,1.2c0.3,0.3,0.9,0.4,1.2,0c1-1,1.9-1.9,2.9-2.9C24.3,42.8,24.3,42.6,24.5,42.3z
		 M22.5,40.3c-0.2-0.2-0.4-0.6-0.6-0.7c-0.2-0.1-0.7-0.1-0.8,0.1c-0.8,0.8-1.7,1.6-2.4,2.4c-0.3,0.3-0.2,0.8,0.1,1.2
		c0.3,0.3,0.8,0.3,1.2,0c0.8-0.7,1.5-1.5,2.3-2.3C22.3,40.8,22.4,40.6,22.5,40.3z M23.4,47.3c0.3-0.1,0.5-0.1,0.6-0.2
		c0.8-0.8,1.6-1.5,2.3-2.3c0.3-0.3,0.2-0.8-0.1-1.1c-0.3-0.3-0.8-0.4-1.1-0.1c-0.8,0.7-1.5,1.5-2.3,2.3c-0.2,0.2-0.1,0.6,0,0.9
		C22.8,47,23.2,47.2,23.4,47.3z M19.7,37.5c-0.2,0.1-0.4,0.1-0.5,0.2c-0.7,0.7-1.4,1.3-2,2.1c-0.3,0.3-0.1,0.8,0.2,1
		c0.3,0.3,0.7,0.3,1,0c0.7-0.6,1.3-1.2,1.9-1.9c0.2-0.2,0.1-0.6,0-0.9C20.2,37.8,19.9,37.6,19.7,37.5z"/>
	<path class="st1" d="M16.1,27.1c0,1-0.8,1.7-1.8,1.7c-1,0-1.8-0.8-1.7-1.8c0-1,0.8-1.7,1.8-1.7C15.4,25.4,16.1,26.1,16.1,27.1z
		 M15.1,27.1c0-0.4-0.3-0.7-0.7-0.7c-0.4,0-0.7,0.3-0.7,0.7c0,0.4,0.3,0.7,0.7,0.7C14.7,27.8,15.1,27.5,15.1,27.1z"/>
	<path class="st1" d="M45.9,28.9c-1,0-1.8-0.8-1.8-1.8c0-1,0.8-1.8,1.8-1.8c1,0,1.8,0.8,1.8,1.7C47.6,28.1,46.8,28.9,45.9,28.9z
		 M46.6,27.1c0-0.4-0.3-0.7-0.7-0.7c-0.4,0-0.7,0.3-0.7,0.7c0,0.4,0.3,0.7,0.7,0.7C46.2,27.8,46.6,27.5,46.6,27.1z"/>
	<path class="st1" d="M29.1,21.2c0.7-0.7,1.3-1.3,1.9-1.9c0.4-0.4,0.8-0.8,1.2-1.2c0.3-0.3,0.6-0.4,0.8-0.1c0.3,0.3,0.2,0.6-0.1,0.8
		c-1.1,1.1-2.2,2.2-3.4,3.4c-0.3,0.3-0.6,0.3-0.9,0c-0.4-0.4-0.8-0.8-1.3-1.3c-0.3-0.3-0.4-0.6-0.1-0.8c0.3-0.3,0.6-0.2,0.8,0.1
		C28.5,20.5,28.7,20.8,29.1,21.2z"/>
</g>
</svg>
