<?xml version="1.0" encoding="utf-8"?>
<!-- Generator: Adobe Illustrator 24.0.1, SVG Export Plug-In . SVG Version: 6.00 Build 0)  -->
<svg version="1.1" id="Layer_1" xmlns="http://www.w3.org/2000/svg" xmlns:xlink="http://www.w3.org/1999/xlink" height="90" width="90" x="0px" y="0px"
	 viewBox="0 0 60 60" style="enable-background:new 0 0 60 60;" xml:space="preserve">
<style type="text/css">
	.st0{fill:#020308;}
	.st1{fill:#B98E75;}
</style>
<g>
	<path class="st1" d="M30.3,7c0.3,0.3,0.4,0.6,0.4,1c0,0.7,0,1.4,0,2.1c0,0.5-0.3,0.8-0.7,0.8c-0.4,0-0.6-0.3-0.6-0.8
		c0-0.7,0-1.4,0-2.1c0-0.4,0.1-0.7,0.4-1C30,7,30.1,7,30.3,7z"/>
	<path class="st1" d="M35.6,37.2c0.1-0.6,0.1-1.1,0.2-1.7c0.2-1.1,0.7-2,1.4-2.8c0.9-0.9,1.3-2.1,1.3-3.4c0-1.5,0-3,0-4.6
		c0-1.7-1.2-2.9-2.9-2.9c-1.2,0-2.4,0-3.6,0c-0.4,0-0.5,0.2-0.5,0.5c0.1,1.1,1,2,2.1,2.1c0.6,0,1.1,0,1.7,0c0.4,0,0.7,0.1,0.8,0.5
		c0.1,0.4,0,0.6-0.3,0.8c-1.2,1.1-1.8,2.5-1.6,4.2c0.1,0.5-0.2,0.8-0.6,0.8c-0.4,0-0.7-0.2-0.7-0.7c-0.2-1.4,0.1-2.6,0.8-3.8
		c0.1-0.1,0.1-0.2,0.2-0.4c-0.4-0.1-0.9-0.2-1.3-0.3c-0.1,0-0.2,0-0.2,0.1c-1.3,0.8-2.6,0.6-3.7-0.4c-1,1-2.1,1.2-3.4,0.5
		c-0.3,0.7-0.8,1.2-1.5,1.5c-0.7,0.3-1.4,0.2-2.2-0.1c0,0.1,0,0.2,0,0.4c0,1.1,0,2.2,0,3.4c0,1,0.4,1.7,1.2,2.3
		c1.2,0.8,1.8,1.9,1.8,3.4c0,0.5,0,1,0,1.4c0,0.4-0.3,0.7-0.7,0.7c-0.4,0-0.7-0.3-0.7-0.7c0-0.5,0-1,0-1.4c0-1-0.4-1.8-1.2-2.3
		c-1.2-0.8-1.8-2-1.8-3.5c0-3.6,0.1-7.2,0-10.8c0-2.1,2.1-3.6,4.1-2.4c0.3-0.7,0.8-1.3,1.6-1.5c0.8-0.3,1.5-0.2,2.2,0.2
		c0.4-0.9,0.9-1.6,1.9-1.9c0.9-0.3,1.8-0.1,2.6,0.4c0.1-0.1,0.2-0.3,0.3-0.4c0.7-1,1.9-1.4,3.1-1.1c1.2,0.3,2,1.4,2,2.6
		c0,1.6,0,3.2,0,4.8c0,0.3,0.1,0.5,0.3,0.6c1,0.8,1.6,1.8,1.6,3.1c0,1.7,0,3.3,0,5c0,1.5-0.5,2.9-1.6,4c-0.9,1-1.4,2.2-1.3,3.6
		c1.1,0.1,2.2,0.3,3.1,0.8c4.4,2.2,5.7,7.7,2.9,11.7c-0.1,0.1-0.2,0.2-0.2,0.3c-0.3,0.3-0.7,0.3-0.9,0.1c-0.3-0.3-0.3-0.6-0.1-0.9
		c0.3-0.4,0.6-0.9,0.8-1.3c1.1-2.5,0.8-4.9-1-7c-1.8-2.1-4.2-2.8-6.8-2c-2.6,0.8-4.2,2.6-4.6,5.4c-0.4,2.5,0.5,4.6,2.6,6.2
		c2.1,1.5,4.3,1.7,6.7,0.7c0.1,0,0.1-0.1,0.2-0.1c0.4-0.2,0.8-0.1,1,0.3c0.2,0.4,0,0.7-0.4,0.9c-1,0.5-2,0.8-3.1,0.8
		c-4.7,0.2-8.4-3.5-8.3-8.2c0.1-3.7,2.9-6.9,6.7-7.5C35.4,37.3,35.5,37.2,35.6,37.2z M24.1,22.4c0-0.8,0-1.7,0-2.5
		c0-0.8-0.5-1.3-1.3-1.4c-0.7,0-1.3,0.5-1.3,1.3c0,1.7,0,3.3,0,5c0,0.8,0.5,1.3,1.3,1.3c0.7,0,1.2-0.6,1.3-1.4
		C24.1,24,24.1,23.2,24.1,22.4z M25.5,21.1c0,0.8,0,1.6,0,2.4c0,0.9,0.5,1.4,1.3,1.4c0.7,0,1.3-0.5,1.3-1.4c0-1.6,0-3.2,0-4.8
		c0-0.8-0.5-1.4-1.3-1.4c-0.7,0-1.3,0.6-1.3,1.4C25.5,19.5,25.5,20.3,25.5,21.1z M31.3,24.9c-0.9-1.3-1-1.6-1.1-2.5
		c-0.1-1,0.6-1.7,1.6-1.7c0.2,0,0.3,0,0.6,0c0-1.2,0-2.3,0-3.4c0-0.9-0.6-1.5-1.4-1.5c-0.8,0-1.5,0.6-1.5,1.5c0,2.1,0,4.2,0,6.3
		C29.4,24.5,30.2,25.1,31.3,24.9z M36.6,20.6c0,0,0-0.1,0-0.2c0-1.5,0-2.9,0-4.4c0-0.1,0-0.3-0.1-0.4c-0.2-0.7-0.9-1-1.6-1
		c-0.7,0.1-1.2,0.6-1.3,1.4c0,0.8,0,1.6,0,2.3c0,0.7,0,1.4,0,2.2C34.7,20.6,35.6,20.6,36.6,20.6z"/>
	<path class="st1" d="M24.6,46.8c0,1.7,0,3.4,0,5.1c0,0.1,0,0.3,0,0.4c0,0.4-0.3,0.6-0.6,0.6c-0.3,0-0.6-0.2-0.7-0.5
		c0-0.2,0-0.3,0-0.5c0-3.5,0-7,0-10.5c0-0.1,0-0.2,0-0.3c0-0.4,0.3-0.7,0.7-0.7c0.4,0,0.7,0.3,0.7,0.7
		C24.6,43.1,24.6,44.9,24.6,46.8C24.6,46.8,24.6,46.8,24.6,46.8z"/>
	<path class="st1" d="M35.6,46.6c0.9-1.2,1.8-2.4,2.7-3.5c0.3-0.4,0.5-0.7,0.8-1.1c0.3-0.4,0.7-0.4,1-0.2c0.3,0.2,0.3,0.6,0.1,1
		c-1.3,1.7-2.7,3.5-4,5.2c-0.4,0.5-0.8,0.5-1.2,0c-0.7-0.9-1.3-1.8-2-2.8c-0.3-0.4-0.2-0.8,0.1-1c0.3-0.2,0.7-0.2,1,0.2
		C34.6,45.2,35.1,45.9,35.6,46.6z"/>
	<path class="st1" d="M14.6,34.9c-0.1-0.1-0.4-0.3-0.5-0.5c-0.1-0.2,0.1-0.6,0.2-0.7c0.8-0.5,1.6-1,2.4-1.4c0.3-0.2,0.7-0.1,0.8,0.3
		c0.2,0.3,0.1,0.7-0.2,0.8c-0.8,0.5-1.6,0.9-2.4,1.4C14.9,34.8,14.8,34.8,14.6,34.9z"/>
	<path class="st1" d="M37.7,13c-0.6,0-1-0.5-0.7-0.9c0.4-0.8,0.9-1.6,1.4-2.4c0.2-0.3,0.5-0.4,0.9-0.2c0.3,0.2,0.4,0.5,0.3,0.9
		c-0.4,0.8-0.9,1.6-1.3,2.3C38,12.8,37.8,12.9,37.7,13z"/>
	<path class="st1" d="M43,32.2c0.3,0.1,0.4,0.1,0.6,0.2c0.7,0.4,1.3,0.8,2,1.1c0.5,0.3,0.6,0.6,0.4,1c-0.2,0.4-0.6,0.4-1.1,0.2
		c-0.7-0.4-1.4-0.8-2.1-1.2c-0.3-0.2-0.5-0.5-0.3-0.8C42.6,32.5,42.8,32.3,43,32.2z"/>
	<path class="st1" d="M21.4,9.4c0.1,0.1,0.3,0.2,0.5,0.4c0.4,0.7,0.8,1.4,1.2,2.1c0.2,0.4,0.1,0.8-0.2,1c-0.3,0.2-0.7,0.1-0.9-0.3
		c-0.4-0.7-0.9-1.4-1.3-2.2C20.4,10,20.7,9.4,21.4,9.4z"/>
	<path class="st1" d="M14.7,15.8c0.3,0.1,0.4,0.1,0.6,0.2c0.7,0.4,1.3,0.8,2,1.2c0.4,0.3,0.6,0.6,0.3,1c-0.2,0.4-0.6,0.4-1,0.2
		c-0.7-0.4-1.4-0.8-2.1-1.2c-0.3-0.2-0.5-0.5-0.3-0.8C14.2,16.1,14.5,16,14.7,15.8z"/>
	<path class="st1" d="M43,18.5c-0.1-0.1-0.4-0.3-0.5-0.5c-0.1-0.2,0-0.6,0.2-0.7c0.8-0.5,1.6-1,2.4-1.4c0.3-0.2,0.6,0,0.8,0.2
		c0.2,0.3,0.2,0.6-0.1,0.8c-0.8,0.5-1.7,1-2.6,1.5C43.2,18.5,43.1,18.5,43,18.5z"/>
	<path class="st1" d="M13.7,24.7c0.4,0,0.8,0,1.3,0c0.4,0,0.7,0.3,0.7,0.6c0,0.4-0.2,0.7-0.6,0.7c-0.9,0-1.8,0-2.7,0
		c-0.4,0-0.6-0.3-0.6-0.7c0-0.4,0.3-0.6,0.7-0.6C12.9,24.7,13.3,24.7,13.7,24.7z"/>
	<path class="st1" d="M46.4,24.7c0.4,0,0.8,0,1.3,0c0.4,0,0.7,0.2,0.7,0.6c0,0.4-0.2,0.7-0.6,0.7c-0.9,0-1.7,0-2.6,0
		c-0.4,0-0.7-0.3-0.7-0.7c0-0.4,0.3-0.6,0.7-0.6C45.6,24.7,46,24.7,46.4,24.7z"/>
</g>
</svg>
